<svg xmlns="http://www.w3.org/2000/svg" width="25" height="17" viewBox="0 0 25 17">
    <g fill="none" fill-rule="evenodd">
        <path fill="#50E3C2" d="M0 9.994C0 9.445.451 9 1.008 9h4.26c.557 0 1.009.453 1.009.994v5.617c0 .55-.451.994-1.009.994h-4.26A1.007 1.007 0 0 1 0 15.611V9.994z"/>
        <path fill="#C38CF3" d="M9 5c0-.552.451-1 1.008-1h4.26c.557 0 1.009.449 1.009 1v10.606c0 .552-.451 1-1.009 1h-4.26a1.005 1.005 0 0 1-1.008-1V5z"/>
        <path fill="#6EB5FF" d="M18 1.001C18 .448 18.451 0 19.008 0h4.26c.557 0 1.009.444 1.009 1.001v14.603c0 .553-.451 1.001-1.009 1.001h-4.26A1.002 1.002 0 0 1 18 15.604V1z"/>
    </g>
</svg>
