<svg width="140" height="49" viewBox="0 0 140 49" fill="none" xmlns="http://www.w3.org/2000/svg">
    <path d="M30.492 14.517V3.667h1.204c.127 0 .236.03.327.088a.41.41 0 0 1 .175.27l.16.758a4.15 4.15 0 0 1 1.132-.917c.43-.234.932-.35 1.506-.35.447 0 .853.093 1.22.279.372.186.69.457.956.813.272.35.479.786.622 1.307.15.516.224 1.108.224 1.778 0 .61-.083 1.177-.248 1.698a4.11 4.11 0 0 1-.71 1.355 3.252 3.252 0 0 1-1.107.9c-.43.213-.914.32-1.451.32-.462 0-.856-.07-1.18-.208a2.96 2.96 0 0 1-.86-.59v3.349h-1.97zM34.32 5.07c-.41 0-.76.088-1.053.263-.287.17-.555.412-.805.726v3.667c.223.276.465.47.726.581.265.107.55.16.853.16.297 0 .566-.056.805-.168.244-.111.449-.281.614-.51.17-.228.3-.515.39-.86.09-.351.136-.763.136-1.236 0-.479-.04-.882-.12-1.212-.074-.335-.183-.606-.327-.813a1.3 1.3 0 0 0-.526-.454 1.602 1.602 0 0 0-.693-.144zM42.84 3.54c.61 0 1.163.098 1.657.294.5.197.925.476 1.276.837.35.362.622.803.813 1.324.191.52.287 1.103.287 1.746 0 .648-.096 1.233-.287 1.753-.191.521-.462.965-.813 1.332-.35.366-.776.648-1.276.845a4.452 4.452 0 0 1-1.658.295 4.514 4.514 0 0 1-1.666-.295 3.603 3.603 0 0 1-1.283-.845 3.882 3.882 0 0 1-.821-1.332 5.059 5.059 0 0 1-.287-1.753c0-.643.095-1.225.287-1.746.196-.521.47-.962.82-1.324.357-.36.785-.64 1.284-.837a4.513 4.513 0 0 1 1.666-.295zm0 6.911c.68 0 1.182-.229 1.506-.686.33-.457.494-1.126.494-2.008 0-.883-.165-1.555-.494-2.017-.324-.463-.826-.694-1.507-.694-.69 0-1.2.234-1.53.702-.33.462-.494 1.132-.494 2.009 0 .876.164 1.546.494 2.008.33.457.84.686 1.53.686zM47.254 3.667h1.562c.149 0 .274.035.375.104.1.069.164.156.19.263l1.173 4.368c.064.24.114.473.151.702.043.228.083.457.12.685.058-.228.12-.457.183-.685l.215-.702 1.356-4.384a.494.494 0 0 1 .191-.263.556.556 0 0 1 .335-.104h.869c.143 0 .263.035.358.104.096.069.16.156.192.263l1.339 4.464c.07.229.13.452.183.67.059.212.115.427.168.645.037-.228.077-.457.12-.685.047-.229.106-.465.175-.71l1.211-4.368a.445.445 0 0 1 .192-.263c.1-.07.218-.104.35-.104h1.491l-2.59 8.18h-1.587c-.17 0-.292-.118-.367-.352l-1.475-4.727a15.215 15.215 0 0 1-.135-.462 8.145 8.145 0 0 1-.096-.47 8.956 8.956 0 0 1-.231.949l-1.49 4.71c-.075.234-.218.351-.431.351h-1.507l-2.59-8.179zM64.082 3.54c.516 0 .989.082 1.42.247.435.164.81.406 1.123.725.314.314.558.702.734 1.164.175.457.263.98.263 1.57 0 .15-.008.274-.024.375a.54.54 0 0 1-.072.231.297.297 0 0 1-.136.12.661.661 0 0 1-.223.032h-5.054c.059.84.285 1.456.678 1.85.393.392.914.589 1.562.589.32 0 .593-.037.821-.112a3.66 3.66 0 0 0 .606-.247c.175-.09.327-.172.454-.247a.784.784 0 0 1 .383-.111c.08 0 .149.016.207.047a.458.458 0 0 1 .152.136l.574.717a3.37 3.37 0 0 1-.733.646 4.36 4.36 0 0 1-.853.415 4.73 4.73 0 0 1-.901.215 6.367 6.367 0 0 1-.885.064 4.425 4.425 0 0 1-1.587-.28 3.621 3.621 0 0 1-1.275-.836 3.976 3.976 0 0 1-.853-1.372c-.207-.547-.31-1.18-.31-1.897 0-.558.09-1.081.27-1.57.18-.495.439-.922.773-1.284.34-.366.752-.656 1.236-.869a4.098 4.098 0 0 1 1.65-.319zm.04 1.41c-.574 0-1.023.163-1.347.487-.324.324-.532.784-.622 1.379h3.699c0-.255-.035-.494-.104-.718a1.66 1.66 0 0 0-.319-.597 1.47 1.47 0 0 0-.542-.4 1.804 1.804 0 0 0-.765-.15zM69.06 11.846V3.667h1.155c.202 0 .343.037.423.112.08.074.133.202.16.382l.119.989c.292-.505.635-.904 1.028-1.196a2.164 2.164 0 0 1 1.324-.438c.403 0 .738.093 1.004.279l-.255 1.474c-.016.096-.05.165-.104.208a.369.369 0 0 1-.215.055c-.08 0-.189-.018-.327-.055a2.187 2.187 0 0 0-.55-.056c-.41 0-.76.114-1.052.343-.292.223-.54.552-.742.988v5.094H69.06zM78.788 3.54c.516 0 .989.082 1.42.247.435.164.81.406 1.123.725.314.314.558.702.734 1.164.175.457.263.98.263 1.57 0 .15-.008.274-.024.375a.54.54 0 0 1-.072.231.297.297 0 0 1-.135.12.661.661 0 0 1-.224.032H76.82c.059.84.284 1.456.678 1.85.393.392.914.589 1.562.589.32 0 .593-.037.821-.112a3.66 3.66 0 0 0 .606-.247c.176-.09.327-.172.455-.247a.784.784 0 0 1 .382-.111c.08 0 .15.016.208.047a.457.457 0 0 1 .151.136l.574.717a3.37 3.37 0 0 1-.733.646 4.36 4.36 0 0 1-.853.415 4.73 4.73 0 0 1-.901.215 6.368 6.368 0 0 1-.885.064 4.425 4.425 0 0 1-1.587-.28 3.622 3.622 0 0 1-1.275-.836 3.977 3.977 0 0 1-.853-1.372c-.207-.547-.31-1.18-.31-1.897 0-.558.09-1.081.27-1.57.18-.495.439-.922.773-1.284.34-.366.752-.656 1.236-.869a4.098 4.098 0 0 1 1.65-.319zm.04 1.41c-.574 0-1.023.163-1.347.487-.324.324-.532.784-.622 1.379h3.699c0-.255-.035-.494-.104-.718a1.66 1.66 0 0 0-.319-.597 1.47 1.47 0 0 0-.542-.4 1.804 1.804 0 0 0-.765-.15zM89.521 11.846c-.255 0-.422-.12-.502-.359l-.16-.789c-.17.191-.348.364-.534.518a3.315 3.315 0 0 1-.606.399 2.916 2.916 0 0 1-.693.255 3.15 3.15 0 0 1-.797.096c-.447 0-.856-.093-1.228-.28a2.789 2.789 0 0 1-.965-.804c-.265-.357-.472-.795-.621-1.316-.144-.52-.216-1.116-.216-1.786 0-.605.083-1.169.248-1.69.164-.52.4-.972.71-1.355.307-.382.677-.68 1.107-.893.43-.218.914-.326 1.451-.326.457 0 .848.074 1.172.223.324.143.614.337.869.582V0h1.969v11.846H89.52zm-2.623-1.443c.41 0 .758-.085 1.045-.255.287-.17.558-.412.813-.725V5.756a1.929 1.929 0 0 0-.734-.574 2.122 2.122 0 0 0-.845-.168c-.297 0-.568.056-.813.168-.239.111-.444.281-.614.51-.164.223-.292.51-.382.86-.09.346-.136.755-.136 1.228 0 .479.037.885.112 1.22.08.33.191.6.335.813a1.3 1.3 0 0 0 .526.455c.207.09.438.135.693.135zM95.646 11.846V0h1.97v4.671c.323-.345.69-.619 1.1-.82.409-.208.887-.312 1.434-.312.447 0 .853.093 1.22.28.372.18.691.446.957.797.271.35.478.784.621 1.3.149.515.224 1.107.224 1.777 0 .61-.083 1.177-.248 1.698-.164.52-.401.972-.709 1.355a3.25 3.25 0 0 1-1.108.9 3.234 3.234 0 0 1-1.451.32c-.25 0-.478-.027-.686-.08a2.306 2.306 0 0 1-.566-.207c-.17-.09-.33-.2-.478-.327a4.662 4.662 0 0 1-.414-.439l-.088.55c-.032.139-.088.237-.168.295a.492.492 0 0 1-.31.088h-1.3zm3.827-6.776c-.41 0-.76.088-1.053.263-.287.17-.555.412-.805.726v3.667c.223.276.465.47.726.581.265.107.552.16.86.16.298 0 .567-.056.806-.168a1.55 1.55 0 0 0 .606-.51c.17-.228.3-.515.39-.86.091-.351.136-.763.136-1.236 0-.479-.04-.882-.12-1.212-.074-.335-.183-.606-.327-.813a1.298 1.298 0 0 0-.526-.454 1.6 1.6 0 0 0-.693-.144zM107.193 14.094a.717.717 0 0 1-.232.311c-.09.074-.231.112-.422.112h-1.467l1.531-3.277-3.309-7.573h1.722c.16 0 .282.037.367.112.085.074.149.16.191.255l1.746 4.24c.059.139.109.282.152.431.042.149.079.298.111.447.043-.155.088-.303.136-.447.053-.143.109-.29.167-.438l1.642-4.233a.578.578 0 0 1 .542-.367h1.579l-4.456 10.427z" fill="#333D5F"/>
    <path d="M36.414 47.892h-4.906v-19.32h4.906l5.299 10.412 5.433-10.413h4.969v19.32h-4.901V37.009l-3.711 7.212h-3.314l-3.775-7.167v10.839zM61.307 33.305a8.236 8.236 0 0 1 2.995.517 6.553 6.553 0 0 1 2.318 1.489 6.703 6.703 0 0 1 1.498 2.35c.368.99.55 2.043.536 3.103a8.718 8.718 0 0 1-.536 3.132 6.597 6.597 0 0 1-1.494 2.373 6.387 6.387 0 0 1-2.325 1.51 8.166 8.166 0 0 1-2.995.527 8.28 8.28 0 0 1-2.997-.526 6.731 6.731 0 0 1-2.336-1.5 6.647 6.647 0 0 1-1.498-2.372c-.368-1-.55-2.064-.535-3.134a8.554 8.554 0 0 1 .535-3.103 6.582 6.582 0 0 1 1.498-2.348 6.716 6.716 0 0 1 2.336-1.489 8.37 8.37 0 0 1 3-.53zm-.053 11.249c.37.027.742-.043 1.078-.205.337-.162.627-.41.843-.721.468-.86.681-1.84.615-2.823a5.154 5.154 0 0 0-.615-2.817 2.178 2.178 0 0 0-.843-.72 2.116 2.116 0 0 0-1.078-.203 2.169 2.169 0 0 0-1.1.2c-.344.16-.642.41-.866.723a5.055 5.055 0 0 0-.622 2.817 5.177 5.177 0 0 0 .622 2.823c.224.313.522.563.866.726.344.162.722.23 1.1.2zM69.89 47.885V33.507h3.978l.662 1.703a7.507 7.507 0 0 1 4.726-2.039A4.56 4.56 0 0 1 82.6 34.33a4.807 4.807 0 0 1 1.582 3.238v10.318h-4.817v-8.766c.003-.3-.052-.599-.163-.878a2.276 2.276 0 0 0-.48-.745 1.738 1.738 0 0 0-.7-.45 1.7 1.7 0 0 0-.822-.069 3.77 3.77 0 0 0-2.426 1.381v9.527h-4.866M86.406 33.642h4.711v14.386h-4.71V33.642zM86.406 27.79h4.711v3.821h-4.71V27.79zM92.528 34.196l2.341-.454v-3.309l4.666-1.066v4.351h3.138V37.1h-3.178v5.738a2.16 2.16 0 0 0 .307 1.225 1.5 1.5 0 0 0 .565.43c.219.094.457.135.694.117h1.613v2.744a6.87 6.87 0 0 1-5.321.478c-2.516-1.061-2.451-4.195-2.451-4.195V37.08h-2.386l.012-2.884zM119.914 33.646h3.745l.748 1.815c.43-.567.934-1.07 1.498-1.496a4.404 4.404 0 0 1 3.621-.57v3.652a5.859 5.859 0 0 0-3.333.524 4.925 4.925 0 0 0-1.471 1.495v8.889h-4.808v-14.31zM111.043 33.338a8.286 8.286 0 0 1 2.995.518 6.396 6.396 0 0 1 2.318 1.495 6.612 6.612 0 0 1 1.501 2.35c.368.99.549 2.043.535 3.103a8.735 8.735 0 0 1-.539 3.13 6.634 6.634 0 0 1-1.498 2.365 6.406 6.406 0 0 1-2.322 1.507c-1.938.7-4.051.7-5.99 0a6.638 6.638 0 0 1-2.336-1.499 6.604 6.604 0 0 1-1.499-2.373 8.671 8.671 0 0 1-.559-3.137 8.498 8.498 0 0 1 .536-3.103 6.52 6.52 0 0 1 1.498-2.349 6.626 6.626 0 0 1 2.337-1.488 8.33 8.33 0 0 1 3.023-.52zm-.057 11.25a2.1 2.1 0 0 0 1.079-.204c.337-.162.627-.411.842-.723.47-.858.685-1.84.618-2.822a5.118 5.118 0 0 0-.618-2.818 2.172 2.172 0 0 0-.843-.72 2.109 2.109 0 0 0-1.078-.203 2.166 2.166 0 0 0-1.098.2 2.23 2.23 0 0 0-.864.723 5.056 5.056 0 0 0-.622 2.818 5.182 5.182 0 0 0 .622 2.822c.223.315.521.566.865.728.344.162.724.231 1.102.2l-.005-.002zM135.882 37.506a4.02 4.02 0 0 1-1.575-.322 4.104 4.104 0 0 1-1.336-.917 4.242 4.242 0 0 1-.892-1.371 4.307 4.307 0 0 1-.313-1.619 4.306 4.306 0 0 1 .313-1.618c.206-.513.51-.98.892-1.372a4.106 4.106 0 0 1 1.336-.917 4.021 4.021 0 0 1 1.575-.322c1.093 0 2.141.446 2.913 1.239a4.287 4.287 0 0 1 1.208 2.99c0 .556-.107 1.106-.314 1.619-.207.513-.511.98-.894 1.372a4.105 4.105 0 0 1-1.336.916c-.5.213-1.036.322-1.577.322zm0-7.852a3.48 3.48 0 0 0-2.493 1.061 3.674 3.674 0 0 0-1.033 2.561c0 .96.372 1.882 1.033 2.56a3.479 3.479 0 0 0 2.493 1.061 3.48 3.48 0 0 0 2.494-1.06 3.669 3.669 0 0 0 1.034-2.56 3.695 3.695 0 0 0-.267-1.388 3.64 3.64 0 0 0-.765-1.176 3.528 3.528 0 0 0-1.145-.786 3.445 3.445 0 0 0-1.351-.275v.002z" fill="#323C5E"/>
    <path d="M137.185 33.88c.224-.17.404-.393.526-.65a1.81 1.81 0 0 0 .171-.827 1.587 1.587 0 0 0-.215-.793 1.534 1.534 0 0 0-.578-.571 5.088 5.088 0 0 0-2.001-.2h-1.018v4.81h1.259v-1.767h.565l.827 1.767h1.524l-1.06-1.768zm-1.259-.954h-.68v-1.023h.662c.333 0 .662.056.662.44.003.58-.293.58-.641.58l-.003.003z" fill="#323C5E"/>
    <path d="M.298 40.2c-.009-.297.097-.585.295-.802.198-.216.472-.343.76-.352h4.46c.289.011.561.139.759.355.197.215.304.503.297.799v6.536c.009.297-.097.585-.295.8-.198.217-.47.344-.76.353h-4.46a1.089 1.089 0 0 1-.758-.355 1.147 1.147 0 0 1-.299-.798L.298 40.2z" fill="#50E3C2"/>
    <path d="M9.375 34.389a1.14 1.14 0 0 1 .296-.8c.197-.216.47-.344.758-.355h4.44c.288.013.56.14.756.356.197.216.303.503.296.798V46.73c.008.295-.099.582-.296.798a1.086 1.086 0 0 1-.755.356h-4.441a1.089 1.089 0 0 1-.756-.357 1.147 1.147 0 0 1-.298-.797V34.389z" fill="#C38CF3"/>
    <path d="M18.484 29.736c0-.306.119-.6.33-.816a1.11 1.11 0 0 1 .794-.338h4.752c.298 0 .583.122.794.338.21.217.329.51.329.816v16.99c0 .306-.119.599-.33.815-.21.216-.495.338-.793.338h-4.752a1.095 1.095 0 0 1-.794-.338 1.156 1.156 0 0 1-.33-.815v-16.99z" fill="#6EB5FF"/>
</svg>
