<svg width="23" height="23" viewBox="0 0 23 23" fill="none" xmlns="http://www.w3.org/2000/svg">
    <path d="M11.255 1.861a1 1 0 0 1 1.018 0l7.463 4.412a1 1 0 0 1 .491.861v8.908a1 1 0 0 1-.49.86l-7.464 4.413a1 1 0 0 1-1.018 0L3.79 16.902a1 1 0 0 1-.491-.86V7.134a1 1 0 0 1 .491-.86l-.509-.861.51.86 7.463-4.412z" stroke="#7D80DA" stroke-width="2"/>
    <path d="M14.744 11.588c0 1.718-1.353 3.07-2.973 3.07-1.62 0-2.974-1.352-2.974-3.07 0-1.717 1.353-3.068 2.974-3.068 1.62 0 2.973 1.351 2.973 3.068z" stroke="#7D80DA" stroke-width="2"/>
</svg>
