<svg width="44" height="25" stroke="#333D5F" viewBox="0 0 44 25" fill="none" xmlns="http://www.w3.org/2000/svg">
    <path d="m31.782 1.443 8.636 4.987a1 1 0 0 1 .5.866v9.972a1 1 0 0 1-.5.866l-8.636 4.986a1 1 0 0 1-1 0l-8.637-4.986a1 1 0 0 1-.5-.866V7.296a1 1 0 0 1 .5-.866l8.637-4.987a1 1 0 0 1 1 0z"  stroke-width="2"/>
    <circle cx="31.114" cy="12.282" r="2.685"  stroke-width="2"/>
    <path d="m12.782 1.443 8.636 4.987a1 1 0 0 1 .5.866v9.972a1 1 0 0 1-.5.866l-8.636 4.986a1 1 0 0 1-1 0l-8.637-4.986a1 1 0 0 1-.5-.866V7.296a1 1 0 0 1 .5-.866l8.637-4.987a1 1 0 0 1 1 0z"  stroke-width="2"/>
    <circle cx="12.278" cy="12.282" r="2.685" stroke-width="2"/>
</svg>
